<?xml version="1.0" encoding="UTF-8"?>
<svg width="30px" height="30px" viewBox="0 0 30 30" version="1.1" xmlns="http://www.w3.org/2000/svg" xmlns:xlink="http://www.w3.org/1999/xlink">
    <!-- Generator: Sketch 51.2 (57519) - http://www.bohemiancoding.com/sketch -->
    <title>tab__me_normal</title>
    <desc>Created with Sketch.</desc>
    <defs></defs>
    <g id="tab__me_normal" stroke="none" stroke-width="1" fill="none" fill-rule="evenodd">
        <circle id="Oval" fill="#CCCCCC" cx="10.5" cy="11.5" r="3.5"></circle>
        <path d="M7.5,18 C6.67157288,18 6,18.6715729 6,19.5 L6,21 L15,21 L15,19.5 C15,18.6715729 14.3284271,18 13.5,18 L7.5,18 Z M7.5,16 L13.5,16 C15.4329966,16 17,17.5670034 17,19.5 L17,21 C17,22.1045695 16.1045695,23 15,23 L6,23 C4.8954305,23 4,22.1045695 4,21 L4,19.5 C4,17.5670034 5.56700338,16 7.5,16 Z" id="Rectangle-4" fill="#696969" fill-rule="nonzero"></path>
        <path d="M4,6 C2.8954305,6 2,6.8954305 2,8 L2,23 C2,24.1045695 2.8954305,25 4,25 L26,25 C27.1045695,25 28,24.1045695 28,23 L28,8 C28,6.8954305 27.1045695,6 26,6 L4,6 Z M4,4 L26,4 C28.209139,4 30,5.790861 30,8 L30,23 C30,25.209139 28.209139,27 26,27 L4,27 C1.790861,27 2.705415e-16,25.209139 0,23 L0,8 C-2.705415e-16,5.790861 1.790861,4 4,4 Z" id="Rectangle-3-Copy" fill="#696969" fill-rule="nonzero"></path>
        <path d="M20.2083333,13 C19.6560486,13 19.2083333,12.5522847 19.2083333,12 C19.2083333,11.4477153 19.6560486,11 20.2083333,11 L24.7916667,11 C25.3439514,11 25.7916667,11.4477153 25.7916667,12 C25.7916667,12.5522847 25.3439514,13 24.7916667,13 L20.2083333,13 Z" id="Line-Copy-2" fill="#696969" fill-rule="nonzero"></path>
        <path d="M20.2083333,17 C19.6560486,17 19.2083333,16.5522847 19.2083333,16 C19.2083333,15.4477153 19.6560486,15 20.2083333,15 L24.7916667,15 C25.3439514,15 25.7916667,15.4477153 25.7916667,16 C25.7916667,16.5522847 25.3439514,17 24.7916667,17 L20.2083333,17 Z" id="Line-Copy-3" fill="#696969" fill-rule="nonzero"></path>
        <path d="M20.2083333,21.25 C19.6560486,21.25 19.2083333,20.8022847 19.2083333,20.25 C19.2083333,19.6977153 19.6560486,19.25 20.2083333,19.25 L24.7916667,19.25 C25.3439514,19.25 25.7916667,19.6977153 25.7916667,20.25 C25.7916667,20.8022847 25.3439514,21.25 24.7916667,21.25 L20.2083333,21.25 Z" id="Line-Copy-4" fill="#696969" fill-rule="nonzero"></path>
    </g>
</svg>