<?xml version="1.0" encoding="UTF-8"?>
<svg width="30px" height="30px" viewBox="0 0 30 30" version="1.1" xmlns="http://www.w3.org/2000/svg" xmlns:xlink="http://www.w3.org/1999/xlink">
    <!-- Generator: Sketch 51.2 (57519) - http://www.bohemiancoding.com/sketch -->
    <title>tab__list_select</title>
    <desc>Created with Sketch.</desc>
    <defs></defs>
    <g id="tab__list_select" stroke="none" stroke-width="1" fill="none" fill-rule="evenodd">
        <path d="M10.2956263,3 L7,3 C4.790861,3 3,4.790861 3,7 L3,24 C3,26.209139 4.790861,28 7,28 L23,28 C25.209139,28 27,26.209139 27,24 L27,7 C27,4.790861 25.209139,3 23,3 L20.1247225,3 L20.1247225,5 L23,5 C24.1045695,5 25,5.8954305 25,7 L25,24 C25,25.1045695 24.1045695,26 23,26 L7,26 C5.8954305,26 5,25.1045695 5,24 L5,7 C5,5.8954305 5.8954305,5 7,5 L10.2956263,5 L10.2956263,3 Z" id="Rectangle-3" fill="#696969" fill-rule="nonzero"></path>
        <path d="M11,3 L11,5 L19,5 L19,3 L11,3 Z M11,1 L19,1 C20.1045695,1 21,1.8954305 21,3 L21,5 C21,6.1045695 20.1045695,7 19,7 L11,7 C9.8954305,7 9,6.1045695 9,5 L9,3 C9,1.8954305 9.8954305,1 11,1 Z" id="Rectangle-3" fill="#696969" fill-rule="nonzero"></path>
        <path d="M10.4166667,14 C9.58823954,14 8.91666667,13.3284271 8.91666667,12.5 C8.91666667,11.6715729 9.58823954,11 10.4166667,11 L19.5833333,11 C20.4117605,11 21.0833333,11.6715729 21.0833333,12.5 C21.0833333,13.3284271 20.4117605,14 19.5833333,14 L10.4166667,14 Z" id="Line" fill="#ED373D" fill-rule="nonzero"></path>
        <path d="M10.4166667,21 C9.58823954,21 8.91666667,20.3284271 8.91666667,19.5 C8.91666667,18.6715729 9.58823954,18 10.4166667,18 L19.5833333,18 C20.4117605,18 21.0833333,18.6715729 21.0833333,19.5 C21.0833333,20.3284271 20.4117605,21 19.5833333,21 L10.4166667,21 Z" id="Line-Copy" fill="#ED373D" fill-rule="nonzero"></path>
    </g>
</svg>