<?xml version="1.0" encoding="UTF-8"?>
<svg width="30px" height="30px" viewBox="0 0 30 30" version="1.1" xmlns="http://www.w3.org/2000/svg" xmlns:xlink="http://www.w3.org/1999/xlink">
    <!-- Generator: Sketch 51.2 (57519) - http://www.bohemiancoding.com/sketch -->
    <title>tab_booking_normal</title>
    <desc>Created with Sketch.</desc>
    <defs></defs>
    <g id="tab_booking_normal" stroke="none" stroke-width="1" fill="none" fill-rule="evenodd">
        <path d="M16.0839826,26 L18,28 L6,28 C4.34314575,28 3,26.6568542 3,25 L3,12.3425221 L5,14.4301858 L5,25 C5,25.5522847 5.44771525,26 6,26 L16.0839826,26 Z M18,28 L6,28 C4.34314575,28 3,26.6568542 3,25 L3,12.3425221 L5,12.3425221 L5,25 C5,25.5522847 5.44771525,26 6,26 L16.0839826,26 L18,28 Z" id="Rectangle-5" fill="#696969" fill-rule="nonzero"></path>
        <path d="M3.18208263,12.1788854 C3.19281425,12.1198615 3.19821272,12.0599916 3.19821272,12 C3.19821272,11.4477153 2.75049747,11 2.19821272,11 L3.39642543,11 L3.18208263,12.1788854 Z M4.81844626,3.17888544 C4.73199341,3.65437613 4.3178625,4 3.83457635,4 L4.66915271,4 L4.81844626,3.17888544 Z M22.1654236,4 C21.6821375,4 21.2680066,3.65437613 21.1815537,3.17888544 L21.3308473,4 L22.1654236,4 Z M21.1815537,3.17888544 C21.2680066,3.65437613 21.6821375,4 22.1654236,4 L21.3308473,4 L21.1815537,3.17888544 Z M21.3308473,4 L22.6863778,11.3221901 L24.7856572,11.8211146 L23.1492936,2.82111456 C23.0628407,2.34562387 22.6487098,2 22.1654236,2 L3.83457635,2 C3.35129021,2 2.9371593,2.34562387 2.85070644,2.82111456 L1.21434281,11.8211146 C1.20361118,11.8801385 1.19821272,11.9400084 1.19821272,12 C1.19821272,12.5522847 1.64592797,13 2.19821272,13 L13.0668934,13 L14.300641,11 L3.39642543,11 L4.66915271,4 L21.3308473,4 Z M4.81844626,3.17888544 C4.73199341,3.65437613 4.3178625,4 3.83457635,4 L4.66915271,4 L4.81844626,3.17888544 Z M2.19821272,11 C2.75049747,11 3.19821272,11.4477153 3.19821272,12 C3.19821272,12.0599916 3.19281425,12.1198615 3.18208263,12.1788854 L3.39642543,11 L2.19821272,11 Z" id="Rectangle-5" fill="#696969" fill-rule="nonzero"></path>
        <path d="M19.5,28 C14.2532949,28 10,23.7467051 10,18.5 C10,13.2532949 14.2532949,9 19.5,9 C24.7467051,9 29,13.2532949 29,18.5 C29,23.7467051 24.7467051,28 19.5,28 Z M19.5,26 C23.6421356,26 27,22.6421356 27,18.5 C27,14.3578644 23.6421356,11 19.5,11 C15.3578644,11 12,14.3578644 12,18.5 C12,22.6421356 15.3578644,26 19.5,26 Z" id="Oval-2" fill="#696969" fill-rule="nonzero"></path>
        <path d="M21,19.5 C21,20.3284271 20.3284271,21 19.5,21 C18.6715729,21 18,20.3284271 18,19.5 L18,14.5 C18,13.6715729 18.6715729,13 19.5,13 C20.3284271,13 21,13.6715729 21,14.5 L21,19.5 Z" id="Line-2" fill="#CCCCCC" fill-rule="nonzero"></path>
        <path d="M18.4393398,20.5606602 C17.8535534,19.9748737 17.8535534,19.0251263 18.4393398,18.4393398 C19.0251263,17.8535534 19.9748737,17.8535534 20.5606602,18.4393398 L22.5606602,20.4393398 C23.1464466,21.0251263 23.1464466,21.9748737 22.5606602,22.5606602 C21.9748737,23.1464466 21.0251263,23.1464466 20.4393398,22.5606602 L18.4393398,20.5606602 Z" id="Line-2" fill="#CCCCCC" fill-rule="nonzero"></path>
    </g>
</svg>